<svg xmlns="http://www.w3.org/2000/svg" width="50" height="50" viewBox="0 0 50 50">
    <path style="text-indent:0;text-align:start;line-height:normal;text-transform:none;block-progression:tb;-inkscape-font-specification:Bitstream Vera Sans" d="M 24.90625 7.96875 A 1.0001 1.0001 0 0 0 24.78125 8 A 1.0001 1.0001 0 0 0 24 9 L 24 38.53125 L 14.8125 29.34375 A 1.0001 1.0001 0 0 0 14.09375 29.03125 A 1.0001 1.0001 0 0 0 13.40625 30.75 L 24.28125 41.65625 L 25 42.34375 L 25.71875 41.65625 L 36.59375 30.75 A 1.0001 1.0001 0 1 0 35.1875 29.34375 L 26 38.53125 L 26 9 A 1.0001 1.0001 0 0 0 24.90625 7.96875 z" overflow="visible" enable-background="accumulate" font-family="Bitstream Vera Sans"/>
</svg>
